<?xml version="1.0" encoding="UTF-8" standalone="no"?>
<!DOCTYPE svg PUBLIC "-//W3C//DTD SVG 1.1//EN" "http://www.w3.org/Graphics/SVG/1.1/DTD/svg11.dtd">
<svg width="100%" height="100%" viewBox="0 0 1200 668" version="1.1" xmlns="http://www.w3.org/2000/svg" xmlns:xlink="http://www.w3.org/1999/xlink" xml:space="preserve" xmlns:serif="http://www.serif.com/" style="fill-rule:evenodd;clip-rule:evenodd;stroke-linejoin:round;stroke-miterlimit:2;">
    <g transform="matrix(1.00418,0,0,1,-3.01255,2)">
        <rect x="3" y="-2" width="1195" height="668" style="fill:rgb(33,33,33);"/>
    </g>
    <g transform="matrix(11.1065,0,0,11.1065,187.542,5.6647)">
        <path d="M12.867,31.789L7.281,38.547L7.281,58L0.133,58L0.133,1.125L7.281,1.125L7.281,28.586L11.969,22.375L27.281,1.125L35.875,1.125L17.398,26.164L37.32,58L28.766,58L12.867,31.789ZM74.141,39.953C73.828,46.047 72.109,50.708 68.984,53.938C65.885,57.167 61.497,58.781 55.82,58.781C50.117,58.781 45.586,56.62 42.227,52.297C38.867,47.948 37.188,42.063 37.188,34.641L37.188,24.328C37.188,16.932 38.906,11.086 42.344,6.789C45.807,2.492 50.521,0.344 56.484,0.344C61.979,0.344 66.224,1.997 69.219,5.305C72.24,8.586 73.88,13.287 74.141,19.406L66.914,19.406C66.602,14.771 65.625,11.464 63.984,9.484C62.344,7.505 59.844,6.516 56.484,6.516C52.604,6.516 49.622,8.039 47.539,11.086C45.456,14.107 44.414,18.547 44.414,24.406L44.414,34.836C44.414,40.591 45.378,45.005 47.305,48.078C49.258,51.151 52.096,52.688 55.82,52.688C59.544,52.688 62.227,51.763 63.867,49.914C65.508,48.065 66.523,44.745 66.914,39.953L74.141,39.953Z" style="fill:white;fill-rule:nonzero;"/>
    </g>
</svg>
