<svg width="324" height="324" viewBox="0 0 324 324" fill="none" xmlns="http://www.w3.org/2000/svg">
<g clip-path="url(#clip0)">
<path d="M-342 444H421V7L-342 444Z" fill="#FE7C9B"/>
<path d="M87.6811 158.306C88.0296 161.488 88.1573 164.053 88.0642 166.001C87.9418 167.898 87.5861 169.626 86.9971 171.184C86.4588 172.712 85.7137 174.293 84.7616 175.925C83.7802 177.507 82.6595 179.608 81.3993 182.23C80.5659 182.779 79.7444 183.524 78.9346 184.465C78.0955 185.356 77.4819 186.285 77.0937 187.253C75.4835 187.98 73.8976 188.456 72.3361 188.681C70.7745 188.906 69.1133 188.782 67.3524 188.311C66.9522 188.203 66.5627 188.056 66.184 187.869C65.8052 187.681 65.4157 187.534 65.0155 187.427C64.0765 187.09 63.3844 186.711 62.9392 186.292C62.494 185.872 61.9862 185.286 61.416 184.532C60.5392 183.482 59.7513 182.821 59.0524 182.548C58.3535 182.275 57.7135 182.983 57.1323 184.671L56.0957 184.458L56.0313 184.698C55.7797 185.317 55.5749 185.841 55.417 186.271C55.3097 186.671 55.1918 187.111 55.0631 187.591C54.9559 187.991 54.8633 188.417 54.7853 188.868C54.7074 189.319 54.6227 189.875 54.5311 190.537C54.3617 191.65 54.1307 192.832 53.8383 194.083C53.5966 195.305 53.0816 196.347 52.2933 197.208C52.229 197.448 52.19 197.673 52.1764 197.884C52.1335 198.044 51.9998 198.223 51.7754 198.42C51.5295 198.698 51.1597 198.877 50.6659 198.959C50.172 199.041 49.725 199.029 49.3248 198.922C48.7666 199.244 48.3471 199.689 48.0662 200.257C47.8067 200.745 47.6058 201.335 47.4635 202.026C47.3427 202.637 47.2365 203.273 47.145 203.935C47.1042 204.568 46.9687 205.153 46.7386 205.692C45.7509 205.857 44.9604 206.245 44.3672 206.858C43.8247 207.442 43.2676 208.001 42.6958 208.534C42.1533 209.118 41.5376 209.575 40.8486 209.905C40.189 210.286 39.3096 210.286 38.2105 209.906C37.0271 208.559 35.9677 207.31 35.0323 206.159C34.2141 205.21 33.4506 204.298 32.7417 203.422C32.0328 202.545 31.6198 202.006 31.5026 201.803C31.6098 201.403 31.5463 201 31.3119 200.594C30.9975 200.166 30.7016 199.83 30.4244 199.584C30.2936 199.592 30.2135 199.57 30.1842 199.519C30.1549 199.469 30.0749 199.447 29.9441 199.455C30.0807 199.106 30.1371 198.735 30.1136 198.342C30.0393 197.979 30.0704 197.623 30.207 197.273C29.8203 196.955 29.3791 196.601 28.8831 196.211C28.3872 195.821 27.9927 195.372 27.6998 194.865C27.6176 194.371 27.638 194.054 27.7609 193.916C27.8331 193.806 28.0683 193.569 28.4664 193.204C28.2692 192.98 28.0866 192.781 27.9186 192.607C27.6707 192.412 27.4988 192.173 27.4031 191.89C27.1101 191.382 26.9879 190.878 27.0366 190.376C27.0052 189.853 27.0138 189.34 27.0624 188.839C27.0818 188.286 27.0611 187.723 27.0004 187.149C26.9397 186.575 26.7336 185.984 26.382 185.375L26.1623 184.994C26.9234 184.555 27.3137 184.059 27.333 183.507C27.3231 182.903 27.1823 182.308 26.9108 181.721C26.6393 181.133 26.3424 180.56 26.0201 180.002C25.6979 179.444 25.6157 178.95 25.7737 178.521C25.8595 178.201 25.9932 178.022 26.1747 177.985C26.3777 177.868 26.606 177.736 26.8597 177.589C26.9591 177.058 27.0156 176.687 27.0292 176.476C27.0135 176.215 26.783 175.874 26.3378 175.455C26.6931 175.25 26.9282 175.012 27.0433 174.743C27.1584 174.474 27.1934 174.183 27.1484 173.87C27.1542 173.529 27.1345 173.202 27.0895 172.89C27.0953 172.548 27.141 172.217 27.2268 171.897C26.4944 170.628 26.3116 169.55 26.6783 168.662C27.045 167.773 27.5464 166.943 28.1825 166.169C28.84 165.316 29.4429 164.427 29.9912 163.501C30.5901 162.547 30.7557 161.368 30.4878 159.967C31.3818 159.992 31.9693 159.721 32.2502 159.152C32.5018 158.534 32.7281 157.929 32.929 157.34C33.1005 156.699 33.4107 156.182 33.8596 155.788C34.2791 155.342 35.1039 155.306 36.3338 155.678C36.0816 154.539 36.3975 153.68 37.2816 153.101C38.2165 152.494 39.1963 152.199 40.2211 152.216L40.2651 152.292L40.3412 152.248C41.241 151.932 42.0843 151.986 42.8711 152.412C43.6286 152.786 44.3686 153.306 45.091 153.971C45.835 154.557 46.5789 155.142 47.3228 155.728C48.1175 156.284 48.9511 156.614 49.8237 156.719C49.3664 155.224 48.8691 153.718 48.3318 152.202C47.8453 150.656 47.5803 149.084 47.5368 147.485C48.3158 147.78 48.8564 147.603 49.1588 146.955L48.9948 146.846C48.5261 146.034 48.2535 145.211 48.1771 144.375C48.1514 143.51 48.115 142.686 48.0679 141.901C48.0423 141.036 47.8644 140.259 47.5343 139.57C47.2256 138.801 46.5432 138.147 45.487 137.606C46.2031 136.855 46.5337 136.021 46.4788 135.106C46.4746 134.161 46.3396 133.224 46.0738 132.295C45.8295 131.286 45.5851 130.276 45.3408 129.267C45.1472 128.229 45.1791 127.229 45.4365 126.269C45.3486 126.117 45.2353 125.979 45.0967 125.856C45.0088 125.704 44.9209 125.552 44.833 125.4C44.6494 124.964 44.5965 124.521 44.6745 124.07C44.7524 123.619 44.8557 123.154 44.9844 122.673C45.1131 122.193 45.1764 121.717 45.1743 121.245C45.1936 120.692 45.0168 120.151 44.6438 119.623C44.7703 118.67 44.729 117.544 44.5197 116.244C44.2811 114.893 44.1119 113.604 44.0119 112.376C43.912 111.148 44.0346 110.13 44.3799 109.322C44.6958 108.463 45.497 108.034 46.7834 108.036C47.3379 108.527 47.7363 109.041 47.9785 109.578C48.1915 110.064 48.1907 110.707 47.9762 111.508C48.4565 111.636 48.8313 111.758 49.1007 111.873C49.8567 113.534 50.4604 115.283 50.9119 117.12C51.3849 118.877 51.8432 120.608 52.2869 122.314C52.4469 122.357 52.607 122.4 52.7671 122.443C52.9272 122.485 53.0873 122.528 53.2474 122.571C53.0878 124.287 53.0805 125.915 53.2255 127.455C53.4212 128.966 53.7262 130.549 54.1406 132.204C54.3106 132.85 54.4953 133.522 54.6946 134.219C54.9447 134.886 55.1147 135.532 55.2047 136.157C55.244 136.811 55.2618 137.545 55.2581 138.359C55.2252 139.122 55.243 139.856 55.3115 140.561C55.4272 142.05 55.6082 143.535 55.8547 145.017C56.1225 146.418 56.4051 147.845 56.7022 149.298C57.0444 151.062 57.3466 152.816 57.6087 154.559C57.9216 156.273 58.0929 158.034 58.1228 159.844L58.8259 161.062C59.0975 161.649 59.1542 162.158 58.9962 162.587C58.809 162.966 58.571 163.374 58.2822 163.811C58.0149 164.169 57.8062 164.628 57.656 165.188C57.4766 165.697 57.5305 166.377 57.8177 167.226L57.8617 167.302L57.9817 167.334C59.1337 168.157 59.8358 169.139 60.0879 170.279C60.3616 171.339 60.5845 172.428 60.7566 173.546C60.8994 174.614 61.1438 175.623 61.4896 176.574C61.8861 177.495 62.754 178.178 64.0933 178.623C64.6285 179.667 65.3002 180.361 66.1085 180.707C66.8874 181.001 67.6985 181.176 68.5418 181.23C69.3851 181.284 70.2138 181.313 71.0278 181.317C71.8632 181.241 72.5797 181.368 73.1771 181.7C73.3916 180.9 73.7047 180.211 74.1164 179.635C74.5495 178.979 75.0012 178.414 75.4715 177.94C75.9925 177.436 76.5029 176.972 77.0024 176.548C77.5235 176.045 78.0045 175.53 78.4455 175.005C79.5597 173.888 80.2241 172.929 80.4386 172.129C80.653 171.328 80.7163 170.852 80.6284 170.7C80.269 169.96 80.2591 169.357 80.5986 168.89C80.9888 168.394 81.4738 167.945 82.0534 167.543C82.6545 167.061 83.2155 166.567 83.7365 166.064C84.3083 165.531 84.5707 164.872 84.5236 164.087C85.111 163.815 85.4906 163.36 85.6621 162.719C85.8552 161.999 85.9974 161.308 86.089 160.646C86.1805 159.984 86.316 159.399 86.4954 158.889C86.6748 158.38 87.0701 158.185 87.6811 158.306ZM49.63 164.646C48.4666 164.506 47.5129 164.143 46.769 163.557C46.0465 162.892 45.3494 162.212 44.6777 161.517C44.0567 160.793 43.3889 160.164 42.6743 159.629C41.9811 159.015 41.0821 158.688 39.9772 158.649L39.781 158.661C39.7303 158.69 39.4805 158.902 39.0317 159.297C38.5828 159.691 38.3223 159.943 38.2501 160.052C38.8611 160.173 39.2906 160.331 39.5386 160.526C39.7866 160.721 39.9331 160.975 39.9781 161.287C40.0738 161.57 40.1081 161.923 40.0809 162.344C40.0751 162.686 40.1387 163.089 40.2716 163.554C40.2287 163.714 40.0111 163.806 39.6187 163.829C39.1971 163.802 38.8808 163.781 38.67 163.768C38.5748 165.244 37.9701 166.54 36.8559 167.657C35.7631 168.694 34.721 169.701 33.7297 170.68C33.9776 170.875 34.211 171.045 34.4296 171.189C34.6483 171.333 34.8816 171.503 35.1296 171.698C34.1932 173.592 33.7946 175.48 33.9338 177.361C34.0945 179.163 34.3498 181.012 34.6998 182.907C35.0713 184.722 35.3013 186.585 35.3897 188.496C35.4996 190.327 35.0864 192.19 34.15 194.084C34.6381 194.343 35.0501 194.646 35.386 194.994C35.7218 195.341 36.2274 195.455 36.9028 195.336C37.3773 195.806 37.765 196.36 38.0658 196.999C38.388 197.557 38.6596 198.144 38.8803 198.761C39.1011 199.378 39.3619 200.005 39.6627 200.644C39.985 201.202 40.398 201.741 40.9018 202.262L41.1419 202.327C43.0373 201.977 44.2844 201.324 44.8834 200.37C45.5331 199.386 45.9827 198.348 46.2322 197.257C46.5325 196.136 46.9128 195.037 47.3731 193.959C47.8334 192.882 48.8873 192.07 50.5346 191.525L50.5754 190.893C50.3275 190.697 50.1195 190.513 49.9516 190.339C49.7836 190.166 49.6264 189.952 49.4799 189.698C49.2084 189.111 49.1116 188.592 49.1896 188.141C49.2382 187.639 49.3483 187.068 49.5199 186.428C49.6407 185.817 49.7215 185.195 49.7623 184.562C49.8539 183.901 49.9054 183.228 49.9169 182.545C49.9577 181.912 50.0931 181.327 50.3233 180.788C50.5242 180.198 51.0277 179.84 51.8338 179.713L50.116 173.398C50.0202 173.115 50.1167 172.754 50.4055 172.317C50.745 171.85 50.9938 171.402 51.1517 170.973C51.3604 170.514 51.373 170.067 51.1894 169.632C51.0565 169.167 50.4698 168.796 49.4292 168.517C49.4135 168.255 49.3432 167.957 49.2181 167.624C49.0931 167.29 49.0081 166.967 48.9631 166.655C48.9181 166.342 48.9278 166.066 48.9921 165.826C49.0564 165.586 49.2955 165.414 49.7093 165.31L49.63 164.646ZM133.974 122.648C133.781 123.368 133.631 123.929 133.524 124.329C133.467 124.7 133.411 125.071 133.354 125.441C133.319 125.732 133.248 126.078 133.141 126.478C133.084 126.849 132.974 127.42 132.81 128.191C132.639 128.831 132.507 129.482 132.416 130.144C132.324 130.806 132.153 131.446 131.901 132.065C131.204 132.265 130.766 132.619 130.587 133.128C130.458 133.609 130.359 134.14 130.289 134.721C130.24 135.223 130.191 135.725 130.143 136.227C130.115 136.648 129.91 136.936 129.525 137.09C128.688 138.453 127.807 139.74 126.882 140.951C125.928 142.11 125.156 143.469 124.567 145.027L123.607 144.77L117.888 153.146C117.693 153.394 117.527 153.693 117.391 154.042C117.254 154.391 117.103 154.716 116.937 155.014C116.172 156.268 115.328 157.5 114.403 158.71C113.499 159.841 112.581 160.946 111.648 162.026L110.835 162.901C111.827 163.682 112.237 164.392 112.065 165.033C111.894 165.673 111.486 166.314 110.842 166.957C110.169 167.549 109.39 168.133 108.506 168.712C107.622 169.29 107.014 169.877 106.682 170.475C106.015 170.725 105.351 171.04 104.691 171.421C104.112 171.823 103.521 172.266 102.92 172.748C102.269 173.26 101.638 173.691 101.029 174.043C100.42 174.395 99.7168 174.699 98.9185 174.957L98.7662 175.045C98.138 175.949 97.4208 176.465 96.6146 176.592C95.8885 176.74 95.1252 176.707 94.3248 176.493C93.4951 176.228 92.6469 175.872 91.78 175.425C90.9346 174.898 90.1078 174.462 89.2995 174.117C88.7607 173.887 88.0432 173.523 87.147 173.026C86.2509 172.528 85.4016 171.936 84.5991 171.249C83.7458 170.591 83.0448 169.846 82.496 169.013C81.8672 168.158 81.5907 167.269 81.6665 166.345C81.7423 165.422 81.7128 164.492 81.5778 163.555C81.392 162.647 81.0062 161.686 80.4203 160.671C80.2152 160.316 80.0247 159.986 79.849 159.682C79.6224 159.407 79.4066 159.091 79.2016 158.736C79.4553 158.59 79.749 158.454 80.0828 158.329C80.3872 158.153 80.6663 157.992 80.92 157.846C81.1952 157.619 81.365 157.386 81.4293 157.146C81.5151 156.825 81.4262 156.437 81.1625 155.98C81.016 155.727 80.7973 155.582 80.5065 155.547C80.2663 155.483 80.077 155.389 79.9383 155.266C79.9791 154.634 80.0531 154.117 80.1604 153.717C80.289 153.237 80.3816 152.811 80.4381 152.44C80.4653 152.019 80.4271 151.601 80.3235 151.187C80.1906 150.723 79.8576 150.205 79.3246 149.633C79.3182 148.216 79.4867 146.867 79.8298 145.586C80.1944 144.225 80.6283 142.926 81.1315 141.688C81.6055 140.4 82.1194 139.122 82.6734 137.855C83.2274 136.588 83.7013 135.3 84.0952 133.99C85.2937 133.839 86.0549 133.399 86.3787 132.671C86.7532 131.914 87.037 131.175 87.23 130.454C87.3938 129.683 87.6161 129.014 87.897 128.446C88.1779 127.877 88.8601 127.653 89.9435 127.771L90.1836 127.836C90.7627 125.675 91.7812 124.275 93.2392 123.636C94.7479 122.968 96.204 122.736 97.6076 122.941C99.0619 123.116 100.234 123.623 101.125 124.462C101.986 125.25 102.088 126.071 101.43 126.924C102.31 127.16 102.97 127.659 103.41 128.42C103.849 129.181 104.027 129.958 103.943 130.751C103.838 131.623 103.799 132.492 103.824 133.357C103.871 134.141 103.922 134.991 103.977 135.907C104.144 137.367 104.23 138.806 104.236 140.223C104.213 141.589 103.849 142.95 103.143 144.305C102.083 144.579 101.507 145.046 101.416 145.708C101.375 146.34 101.439 146.98 101.609 147.626C101.75 148.221 101.807 148.73 101.78 149.151C101.753 149.573 101.263 149.72 100.31 149.594L100.07 149.53L100.005 149.77C99.8339 150.41 99.7678 151.057 99.807 151.711C99.897 152.336 99.8123 152.892 99.5528 153.38C99.0082 153.492 98.4529 153.643 97.8869 153.835C97.3208 154.026 96.7802 154.203 96.2649 154.365C96.8801 155.431 97.1606 156.385 97.1062 157.228C97.0518 158.072 96.8119 158.887 96.3867 159.674C95.9828 160.38 95.4482 161.095 94.7828 161.817C94.088 162.489 93.4373 163.237 92.8305 164.061C92.2451 164.805 91.7437 165.636 91.3262 166.553C90.9302 167.391 90.7783 168.358 90.8704 169.455C91.7001 169.72 92.5248 169.684 93.3446 169.346C94.135 168.957 94.9215 168.503 95.7041 167.984C96.4575 167.413 97.2147 166.909 97.9758 166.469C98.7877 166 99.6153 165.793 100.459 165.848L100.579 165.88L100.611 165.76C101.741 164.904 102.747 163.951 103.629 162.901C104.532 161.77 105.385 160.669 106.187 159.597C107.01 158.445 107.863 157.344 108.745 156.294C109.648 155.163 110.65 154.145 111.751 153.239C112.239 153.498 112.701 153.536 113.136 153.352C113.622 153.139 114.039 152.865 114.386 152.529L114.374 152.333C114.271 151.919 114.196 151.556 114.151 151.244C114.077 150.881 114.039 150.463 114.037 149.991C114.07 149.227 114.252 148.547 114.584 147.95C114.915 147.352 115.316 146.816 115.787 146.342C116.308 145.838 116.883 145.37 117.514 144.939C118.144 144.507 118.76 144.05 119.361 143.568L119.513 143.48L119.457 143.208C119.309 142.481 119.328 141.929 119.515 141.55C119.724 141.091 119.977 140.709 120.273 140.402C120.621 140.066 120.983 139.756 121.359 139.471C121.787 139.156 122.13 138.755 122.39 138.267C123.479 138.044 124.181 137.503 124.497 136.644C124.813 135.785 125.089 134.915 125.325 134.035L126.374 134.445L126.426 134.008C126.777 132.858 127.028 132.003 127.178 131.443C127.379 130.853 127.584 130.329 127.792 129.87C127.972 129.361 128.217 128.847 128.527 128.33C128.858 127.733 129.294 126.906 129.835 125.85C130.282 124.983 130.703 124.131 131.099 123.293C131.546 122.426 131.938 121.523 132.275 120.584C132.587 120.539 132.831 120.669 133.007 120.973C133.154 121.227 133.3 121.481 133.447 121.734C133.455 121.865 133.492 122.047 133.558 122.279C133.675 122.482 133.814 122.605 133.974 122.648ZM96.969 131.327C96.889 131.305 96.8236 131.309 96.7729 131.339C96.7729 131.339 96.7328 131.328 96.6528 131.306C95.2649 131.363 94.2304 131.622 93.5493 132.083C92.8389 132.493 92.2964 133.077 91.9219 133.835C91.5688 134.512 91.3143 135.302 91.1584 136.204C91.024 137.026 90.8242 137.852 90.5589 138.681C90.3152 139.431 89.9113 140.138 89.3474 140.802C88.7835 141.465 87.9062 141.938 86.7155 142.22C87.032 143.119 87.3486 144.019 87.6651 144.919C88.0031 145.739 88.381 146.569 88.799 147.41C88.1122 148.213 87.6762 149.04 87.491 149.891C87.3566 150.713 87.3022 151.556 87.3278 152.421C87.4042 153.256 87.5099 154.142 87.6449 155.079C87.8014 155.936 87.8417 156.826 87.7658 157.75L88.29 157.954C88.4344 157.736 88.7067 157.68 89.1069 157.787C89.5071 157.895 89.7872 157.97 89.9473 158.012C90.0367 156.878 90.377 155.768 90.9681 154.683C91.61 153.568 92.2812 152.504 92.9816 151.491C93.7035 150.397 94.36 149.308 94.9512 148.222C95.5423 147.137 95.8025 146.006 95.7319 144.828C97.092 143.434 97.7825 141.818 97.8034 139.979C97.8243 138.14 97.689 136.324 97.3976 134.53C97.3233 134.167 97.2518 133.633 97.1833 132.928C97.1362 132.144 97.0648 131.61 96.969 131.327ZM178.375 102.696C179.029 104.416 179.428 105.81 179.571 106.877C179.684 107.894 179.623 108.843 179.387 109.723C179.173 110.524 178.806 111.412 178.287 112.388C177.739 113.314 177.17 114.556 176.581 116.113C176.351 116.652 176.131 117.151 175.923 117.61C175.714 118.069 175.535 118.578 175.384 119.138C174.545 120.029 173.595 121.254 172.534 122.814C171.443 124.323 170.316 125.887 169.153 127.506C168.012 129.045 166.877 130.478 165.749 131.805C164.672 133.104 163.673 133.951 162.752 134.348C162.682 134.93 162.295 135.491 161.593 136.032C160.89 136.573 160.336 136.961 159.93 137.195C159.27 137.576 158.615 138.022 157.963 138.534C157.362 139.016 156.954 139.657 156.74 140.458C156.697 140.618 156.65 140.713 156.599 140.742C156.628 140.793 156.643 140.818 156.643 140.818C156.694 140.789 156.694 140.789 156.643 140.818C156.672 140.869 156.68 141 156.667 141.21C156.489 142.192 156.111 142.884 155.531 143.287C155.002 143.66 154.386 143.881 153.681 143.949C153.005 144.068 152.261 144.126 151.447 144.123C150.684 144.09 149.953 144.173 149.257 144.372C148.581 144.491 147.983 144.803 147.462 145.307C146.912 145.76 146.537 146.517 146.338 147.579C145.456 146.871 144.59 146.66 143.741 146.948C142.892 147.235 142.062 147.613 141.25 148.082C140.459 148.47 139.679 148.819 138.91 149.128C138.112 149.386 137.352 149.182 136.629 148.516L136.585 148.44L134.196 147.993L134.099 148.353C133.992 148.753 133.95 149.15 133.974 149.542C133.997 149.934 133.981 150.316 133.924 150.687C133.87 151.53 133.79 152.388 133.685 153.261C133.551 154.083 133.322 154.858 132.998 155.586C132.653 156.394 132.209 157.09 131.666 157.674C131.153 158.309 130.487 158.795 129.667 159.133C128.964 157.915 128.674 156.594 128.799 155.169C128.873 153.773 128.961 152.402 129.064 151.057C129.087 149.691 128.907 148.442 128.524 147.31C128.061 146.156 126.985 145.289 125.296 144.708C124.836 144.027 124.136 143.517 123.197 143.18C122.177 142.821 121.224 142.458 120.335 142.092C119.418 141.674 118.743 141.15 118.312 140.52C117.829 139.919 117.88 139.01 118.463 137.794C117.948 137.956 117.541 137.954 117.242 137.788C117.096 137.535 117.025 137.237 117.031 136.895C116.957 136.532 116.897 136.195 116.852 135.882C117.156 135.707 117.457 135.465 117.754 135.159C117.97 134.831 118.216 134.554 118.491 134.327C118.686 134.079 118.94 133.933 119.252 133.888C119.485 133.821 119.819 133.932 120.257 134.221C120.585 134.438 120.902 134.694 121.209 134.991C121.515 135.287 121.847 135.569 122.205 135.837C123.196 136.617 124.26 137.288 125.397 137.85C126.504 138.361 127.658 138.778 128.858 139.099L129.218 139.196C129.189 139.145 129.217 138.96 129.303 138.64C129.389 138.319 129.5 137.985 129.637 137.635C129.744 137.235 129.84 136.875 129.926 136.555C130.012 136.234 130.076 135.994 130.119 135.834C130.406 134.924 130.682 134.055 130.947 133.225C131.212 132.395 131.401 131.61 131.514 130.868C131.649 130.046 131.627 129.247 131.449 128.47C131.293 127.613 130.951 126.728 130.423 125.814C131.381 123.84 132.255 121.78 133.045 119.632C133.805 117.434 134.621 115.272 135.491 113.146C136.361 111.02 137.354 108.991 138.472 107.06C139.641 105.1 141.112 103.371 142.886 101.873C143.812 102.422 144.711 102.748 145.583 102.853C146.456 102.959 147.303 103.078 148.125 103.213C148.998 103.318 149.853 103.568 150.69 103.964C151.578 104.331 152.461 105.039 153.338 106.089C155.004 108.037 156.19 110.092 156.897 112.255C157.655 114.388 158.28 116.7 158.771 119.191C159.068 120.643 159.405 122.106 159.782 123.58C160.21 125.024 160.805 126.406 161.567 127.725L162.187 127.57C162.293 126.697 162.58 126.024 163.051 125.549C163.572 125.045 164.122 124.592 164.702 124.19C165.281 123.788 165.821 123.375 166.32 122.951C166.841 122.447 167.129 121.773 167.184 120.93C167.99 120.803 168.613 120.477 169.054 119.952C169.517 119.346 169.91 118.68 170.234 117.951C170.557 117.223 170.867 116.47 171.161 115.691C171.456 114.912 171.863 114.27 172.384 113.766L171.957 113.201C172.519 112.065 173.056 111.18 173.569 110.545C174.082 109.911 174.545 109.305 174.957 108.729C175.368 108.153 175.721 107.476 176.016 106.697C176.31 105.918 176.505 104.791 176.6 103.315C176.796 103.067 177.06 102.88 177.394 102.755C177.749 102.55 178.076 102.531 178.375 102.696ZM147.46 110.498C147.147 110.543 146.824 110.628 146.491 110.753C146.178 110.798 145.851 110.818 145.51 110.812C144.877 110.771 144.314 110.792 143.82 110.874C143.326 110.956 142.874 111.285 142.462 111.861L142.55 112.013L142.474 112.057C141.028 115.53 139.878 119.104 139.022 122.778C138.188 126.372 137.197 129.988 136.051 133.627L134.97 133.338C134.879 134 134.954 134.599 135.196 135.136C135.489 135.643 135.767 136.125 136.031 136.582C136.295 137.039 136.493 137.499 136.626 137.964C136.759 138.428 136.674 138.985 136.372 139.633L136.231 139.917C136.844 140.51 137.387 140.806 137.86 140.804C138.353 140.721 138.803 140.563 139.209 140.329C139.637 140.014 140.039 139.715 140.415 139.429C140.792 139.144 141.166 139.03 141.537 139.087C141.747 139.1 141.937 139.194 142.105 139.367C142.273 139.541 142.401 139.704 142.488 139.856C142.742 139.71 142.996 139.563 143.25 139.417C143.554 139.241 143.844 139.04 144.119 138.813C144.619 138.39 145.202 138.053 145.87 137.803C146.559 137.473 147.159 137.633 147.671 138.285C148.451 137.293 149.242 136.261 150.044 135.189C150.846 134.118 151.284 132.884 151.358 131.488L152.198 131.713C152.249 131.684 152.274 131.669 152.274 131.669C152.296 131.589 152.332 131.535 152.383 131.505C153.212 130.012 153.557 128.324 153.418 126.442C153.329 124.531 152.964 122.611 152.324 120.68C151.683 118.75 150.89 116.907 149.944 115.153C149.05 113.369 148.221 111.817 147.46 110.498ZM175.031 66.6707C174.323 67.5532 174.123 68.379 174.431 69.148C174.74 69.917 175.114 70.6821 175.554 71.4433C176.044 72.1751 176.429 72.9002 176.708 73.6184C176.987 74.3367 176.729 75.061 175.933 75.7913C175.226 75.3875 174.447 75.093 173.596 74.9078C172.766 74.6426 171.951 74.4027 171.151 74.1883C170.321 73.923 169.578 73.5739 168.922 73.1407C168.266 72.7076 167.74 72.0304 167.343 71.1092L168.6 64.4972C169.326 64.3486 169.955 64.324 170.486 64.4234C171.017 64.5228 171.526 64.7022 172.014 64.9617C172.503 65.2211 172.98 65.5206 173.447 65.8601C173.935 66.1196 174.463 66.3898 175.031 66.6707ZM209.485 92.245C210.18 93.3321 210.533 94.1772 210.543 94.7804C210.603 95.3543 210.569 95.8813 210.441 96.3616C210.283 96.7911 210.179 97.2567 210.131 97.7584C210.104 98.18 210.324 98.7968 210.793 99.6087C210.358 101.551 209.962 103.032 209.603 104.051C209.215 105.019 208.808 105.897 208.383 106.684C207.928 107.42 207.427 108.25 206.878 109.176C206.33 110.101 205.624 111.456 204.76 113.241L204.271 113.624C204.558 114.474 204.528 115.066 204.181 115.402C203.913 115.759 203.526 116.084 203.019 116.377C202.562 116.641 202.135 116.955 201.736 117.321C201.338 117.686 201.207 118.337 201.342 119.274C200.626 120.025 199.948 120.552 199.31 120.853C198.672 121.153 197.871 121.582 196.907 122.139C196.602 122.315 196.182 122.524 195.645 122.766C195.159 122.979 194.793 123.224 194.547 123.501C194.373 123.669 194.218 123.928 194.082 124.277C194.025 124.648 193.914 124.983 193.748 125.282C193.582 125.58 193.358 125.777 193.075 125.873C192.821 126.02 192.476 125.949 192.038 125.66C191.517 126.164 190.959 126.486 190.364 126.627C189.769 126.767 189.14 126.792 188.478 126.7C187.816 126.609 187.136 126.427 186.437 126.154C185.818 125.902 185.214 125.676 184.625 125.475C184.195 125.317 183.755 125.199 183.304 125.121C182.853 125.043 182.427 124.95 182.027 124.843C181.147 124.607 180.331 124.131 179.579 123.415C178.827 122.699 178.162 121.899 177.584 121.015C177.006 120.131 176.504 119.203 176.078 118.231C175.652 117.259 175.336 116.359 175.129 115.531C175.322 114.811 175.358 114.113 175.239 113.438C175.04 112.741 174.815 112.059 174.565 111.391C174.366 110.694 174.181 110.023 174.011 109.377C173.862 108.651 173.885 107.927 174.078 107.207C173.697 106.547 173.447 105.88 173.327 105.205C173.259 104.5 173.256 103.791 173.318 103.079C173.431 102.337 173.599 101.631 173.821 100.962C174.065 100.212 174.272 99.5169 174.444 98.8766C174.85 98.6422 175.256 98.4079 175.662 98.1735C176.038 97.8884 176.434 97.694 176.847 97.5904C177.232 97.4361 177.624 97.4125 178.025 97.5198C178.395 97.5763 178.803 97.8143 179.249 98.2338C180.395 99.3988 180.938 100.574 180.878 101.759C180.839 102.864 180.71 103.987 180.489 105.129C180.269 106.271 180.191 107.365 180.253 108.411C180.316 109.458 181.018 110.439 182.36 111.356C181.801 111.679 181.509 112.051 181.481 112.472C181.505 112.865 181.583 113.293 181.716 113.758C181.87 114.142 181.974 114.556 182.027 114.999C182.08 115.442 181.922 115.872 181.553 116.288C182.033 116.416 182.493 116.861 182.933 117.622C183.423 118.354 183.924 119.046 184.435 119.698C184.968 120.27 185.504 120.671 186.043 120.901C186.633 121.102 187.282 120.761 187.99 119.878C188.972 120.056 189.89 119.83 190.745 119.201C191.651 118.543 192.524 118.005 193.365 117.587C193.812 116.72 194.289 116.14 194.796 115.847C195.275 115.503 195.786 115.276 196.331 115.164C196.846 115.002 197.386 114.825 197.953 114.634C198.519 114.442 199.084 114.015 199.647 113.351C199.352 112.371 199.415 111.658 199.834 111.213C200.254 110.768 200.717 110.399 201.225 110.106C201.703 109.762 202.101 109.397 202.419 109.01C202.788 108.595 202.799 107.911 202.453 106.961C202.566 106.219 202.887 105.662 203.416 105.289C203.916 104.865 204.415 104.441 204.915 104.017C205.465 103.564 205.881 103.054 206.162 102.486C206.464 101.837 206.439 100.973 206.085 99.8913C206.567 98.7336 206.897 97.9 207.077 97.3904C207.278 96.8008 207.446 96.3313 207.583 95.9819C207.719 95.6324 207.917 95.2136 208.177 94.7255C208.436 94.2374 208.872 93.4106 209.485 92.245ZM253.365 55.7473C253.217 56.78 253.24 57.8156 253.433 58.854C253.627 59.8924 253.715 60.924 253.698 61.9489C253.731 62.9444 253.565 63.8863 253.198 64.7746C252.882 65.6336 252.151 66.36 251.005 66.9538C250.369 67.727 250.083 68.6367 250.145 69.683C250.23 70.6492 250.329 71.6408 250.442 72.6578C250.526 73.6241 250.436 74.522 250.171 75.3517C249.876 76.1307 249.068 76.6648 247.747 76.9542C246.678 78.3834 245.852 79.9424 245.271 81.6311C244.711 83.2397 244.232 84.8698 243.832 86.5214C243.682 87.0817 243.54 87.7727 243.405 88.5946C243.242 89.3657 243.03 89.9953 242.77 90.4834C242.532 90.8914 242.192 91.1219 241.749 91.1747C241.306 91.2276 240.888 91.2658 240.496 91.2893C240.074 91.2621 239.711 91.3364 239.406 91.5122C239.153 91.6587 239.056 92.0189 239.117 92.5928C239.882 93.0981 240.237 93.5362 240.18 93.9071C240.153 94.3288 239.955 94.7476 239.586 95.1635C239.217 95.5794 238.809 95.9845 238.36 96.379C237.911 96.7734 237.608 97.1854 237.45 97.6149C237.163 98.5247 237.127 99.4587 237.342 100.417C237.557 101.375 237.798 102.319 238.063 103.248C238.329 104.177 238.464 105.114 238.468 106.059C238.553 107.025 238.281 107.96 237.652 108.864C238.365 108.927 238.773 109.165 238.876 109.579C239.031 109.963 239.109 110.391 239.111 110.864C239.142 111.387 239.21 111.855 239.314 112.269C239.468 112.654 239.876 112.892 240.538 112.983C240.333 114.387 240.249 115.823 240.284 117.291C240.371 118.729 240.457 120.168 240.543 121.606C240.659 123.096 240.695 124.564 240.65 126.01C240.686 127.478 240.471 128.922 240.005 130.341L241.288 132.036C240.409 132.272 239.942 132.576 239.885 132.947C239.88 133.289 240.009 133.688 240.272 134.145C240.536 134.601 240.8 135.058 241.063 135.515C241.407 135.993 241.474 136.461 241.266 136.92C241.231 137.211 241.141 137.466 240.997 137.684C240.903 137.874 240.824 138.088 240.76 138.329C239.839 140.484 239.616 142.676 240.091 144.905C240.165 145.268 240.265 145.617 240.39 145.95C240.515 146.284 240.63 146.658 240.733 147.072C240.89 147.929 240.908 148.899 240.79 149.982C240.671 151.066 240.516 152.204 240.325 153.396C240.134 154.589 239.983 155.793 239.873 157.007C239.791 158.272 239.836 159.464 240.008 160.582C239.138 160.949 238.547 161.392 238.237 161.909C237.906 162.506 237.719 163.121 237.679 163.754C237.667 164.437 237.721 165.116 237.84 165.792C237.96 166.467 237.984 167.096 237.914 167.677C237.823 168.339 237.582 168.918 237.191 169.414C236.78 169.99 236.069 170.4 235.06 170.644L233.437 175.743C232.623 175.739 231.995 176 231.554 176.525C231.063 177.08 230.64 177.696 230.287 178.373C229.883 179.08 229.461 179.696 229.02 180.221C228.528 180.776 227.85 181.066 226.985 181.091C226.864 181.702 226.677 182.081 226.423 182.228C226.199 182.425 225.777 182.398 225.158 182.146L224.72 184.023C223.818 183.867 222.804 183.81 221.677 183.851C220.53 183.973 219.414 183.974 218.331 183.855C217.276 183.787 216.316 183.53 215.449 183.083C214.612 182.687 214.037 181.869 213.727 180.627C213.449 180.381 213.107 180.139 212.699 179.901C212.24 179.693 211.817 179.429 211.431 179.111C211.073 178.844 210.752 178.522 210.467 178.145C210.211 177.819 210.122 177.431 210.2 176.98C209.245 176.381 208.58 175.581 208.205 174.58C207.809 173.658 207.488 172.693 207.244 171.684C207 170.675 206.705 169.695 206.359 168.745C206.013 167.794 205.363 167.019 204.408 166.42C204.753 165.612 204.873 164.765 204.767 163.879C204.611 163.022 204.44 162.139 204.254 161.232C204.018 160.353 203.821 159.486 203.665 158.629C203.508 157.772 203.603 156.94 203.948 156.131L203.169 154.957C204.089 151.043 205.278 147.244 206.737 143.56C208.175 139.956 210.275 136.68 213.038 133.732C213.024 132.184 213.389 130.823 214.132 129.65C214.905 128.527 215.717 127.415 216.57 126.314C217.401 125.293 218.083 124.188 218.616 123.001C219.177 121.865 219.291 120.48 218.957 118.846C219.533 119.258 219.918 119.34 220.114 119.092C220.338 118.895 220.518 118.621 220.655 118.272C220.872 117.944 221.077 117.656 221.272 117.408C221.497 117.211 221.882 117.293 222.429 117.654C222.058 115.838 222.166 114.152 222.755 112.594C223.395 111.007 224.195 109.462 225.155 107.961C226.195 106.481 227.235 105.001 228.275 103.521C229.344 102.092 230.148 100.613 230.686 99.0841C231.275 97.5261 231.468 95.9264 231.264 94.2848C231.032 92.5924 230.148 90.7685 228.613 88.8131C228.894 88.2449 228.978 87.6886 228.867 87.144C228.726 86.5487 228.535 85.9826 228.293 85.4459C228.101 84.8799 227.964 84.3499 227.882 83.8561C227.8 83.3623 227.969 82.8927 228.388 82.4475C227.711 82.0944 227.133 82.0897 226.655 82.4335C226.177 82.7772 225.732 83.237 225.32 83.813C224.959 84.3597 224.623 84.8917 224.313 85.4091C224.003 85.9265 223.652 86.197 223.259 86.2205C223.517 87.0188 223.48 87.7167 223.149 88.3141C222.868 88.8823 222.522 89.4543 222.11 90.0303C221.669 90.5555 221.217 91.1208 220.755 91.7261C220.292 92.3314 220.045 93.0156 220.012 93.7789C219.438 93.8396 219.065 94.1901 218.894 94.8304C218.743 95.3907 218.597 96.0164 218.455 96.7075C218.334 97.3185 218.104 97.8573 217.764 98.324C217.425 98.7906 216.775 98.8953 215.814 98.6379C215.979 99.6256 215.779 100.451 215.215 101.115C214.702 101.75 214.039 102.301 213.227 102.77C212.415 103.239 211.549 103.672 210.628 104.068C209.757 104.435 209.036 104.886 208.464 105.419L206.423 104.872C206.468 105.184 206.433 105.475 206.318 105.744C206.152 106.043 205.913 106.215 205.601 106.26C204.697 105.632 203.789 104.938 202.877 104.179C201.885 103.399 201.06 102.555 200.402 101.65C199.664 100.723 199.183 99.7149 198.96 98.6257C198.708 97.4858 198.834 96.297 199.337 95.0592C199.264 91.651 199.944 88.5519 201.378 85.762C201.749 85.8185 202.072 85.7335 202.347 85.5069C202.593 85.2297 202.824 84.927 203.041 84.599C203.279 84.191 203.491 83.7976 203.679 83.4188C203.837 82.9893 204.028 82.6759 204.252 82.4787C204.082 81.8326 204.054 81.1387 204.167 80.3969C204.33 79.6258 204.549 78.8908 204.822 78.1918C205.146 77.4636 205.499 76.7862 205.881 76.1594C206.285 75.4527 206.667 74.8259 207.028 74.2792C207.729 73.2659 208.294 72.195 208.726 71.0666C209.178 69.8582 209.66 68.7004 210.171 67.5935C210.653 66.4358 211.218 65.3649 211.868 64.3808C212.518 63.3968 213.426 62.5679 214.593 61.894L216.667 62.3209C216.097 63.3264 215.702 64.4001 215.482 65.5421C215.283 66.6041 215.073 67.7061 214.853 68.8481C214.604 69.9394 214.274 71.0092 213.865 72.0576C213.455 73.106 212.751 74.0539 211.751 74.9014C211.863 77.2048 211.499 79.4449 210.659 81.6217C209.839 83.7184 208.925 85.7683 207.917 87.7715C208.356 88.5326 208.48 89.2734 208.287 89.9937C208.094 90.7141 207.795 91.4277 207.391 92.1344C206.987 92.8412 206.569 93.5226 206.136 94.1786C205.673 94.7839 205.371 95.4321 205.229 96.1232C205.108 96.7342 205.238 97.3695 205.619 98.0292C205.97 98.6381 206.769 99.2596 208.014 99.8936C208.448 99.2376 209.066 98.6098 209.87 98.0103C210.674 97.4107 211.438 96.8005 212.162 96.1795C212.857 95.5078 213.406 94.8185 213.81 94.1118C214.235 93.3249 214.341 92.4524 214.126 91.494C214.484 90.4749 215.026 89.6549 215.75 89.0339C216.474 88.4129 217.296 87.9041 218.218 87.5076C218.838 84.714 219.545 82.0727 220.341 79.5836C221.158 77.0144 221.859 74.4785 222.444 71.9758C223.029 69.4731 223.428 66.9421 223.642 64.3829C223.877 61.7437 223.774 58.9279 223.332 55.9356C224.171 55.0452 225.157 54.6447 226.292 54.7341C227.426 54.8235 228.419 55.197 229.273 55.8546C229.523 56.5221 229.682 57.2082 229.751 57.9129C229.841 58.5375 229.931 59.1621 230.021 59.7868C230.132 60.3313 230.298 60.912 230.519 61.5288C230.79 62.1163 231.258 62.692 231.922 63.2559C231.458 63.3888 231.201 63.7061 231.152 64.2078C231.154 64.6802 231.102 65.1165 230.995 65.5167C231.528 66.0884 231.854 66.712 231.973 67.3874C232.063 68.012 232.102 68.6659 232.091 69.3491C232.05 69.9816 232.064 70.6502 232.133 71.3548C232.252 72.0302 232.553 72.6684 233.035 73.2695C233.086 74.999 233.359 76.7021 233.854 78.3787C234.369 79.9753 235.001 81.5387 235.75 83.0689L237.823 83.4957C237.926 82.1507 238.342 80.9969 239.072 80.0343C239.852 79.0424 240.677 78.1267 241.545 77.287C242.384 76.3966 243.183 75.4955 243.942 74.5836C244.672 73.6211 245.114 72.4526 245.268 71.0783C244.723 69.431 244.756 68.0245 245.369 66.859C245.952 65.6427 246.645 64.4985 247.447 63.4266C248.249 62.3547 248.971 61.2613 249.612 60.1465C250.276 58.9516 250.429 57.5773 250.074 56.0236L251.977 54.925C252.022 55.2373 252.204 55.4364 252.524 55.5221C252.845 55.6079 253.125 55.683 253.365 55.7473ZM230.741 113.768C230.409 114.366 230.012 114.967 229.55 115.572C229.087 116.178 228.639 116.808 228.206 117.464C227.773 118.12 227.42 118.798 227.147 119.497C226.874 120.196 226.786 120.923 226.884 121.678C226.15 121.696 225.603 121.978 225.242 122.525C224.961 123.093 224.694 123.687 224.443 124.305C224.221 124.975 223.929 125.583 223.568 126.13C223.258 126.647 222.736 126.915 222.002 126.933C221.389 128.098 220.857 129.285 220.404 130.494C219.901 131.731 219.383 132.944 218.85 134.131C218.347 135.369 217.775 136.545 217.133 137.66C216.47 138.855 215.668 139.927 214.727 140.876C214.696 142.111 214.371 143.246 213.75 144.281C213.159 145.367 212.553 146.427 211.933 147.462C211.262 148.526 210.751 149.633 210.4 150.783C210.049 151.932 210.138 153.2 210.667 154.586C209.68 156.509 209.362 158.418 209.712 160.314C210.04 162.289 210.692 164.179 211.666 165.985C212.67 167.841 213.801 169.624 215.059 171.333C216.346 173.093 217.429 174.735 218.308 176.257C219.407 176.637 220.374 176.789 221.21 176.713C222.045 176.637 222.818 176.393 223.528 175.983C224.239 175.573 224.916 175.047 225.56 174.404C226.182 173.842 226.881 173.235 227.656 172.585C227.419 171.707 227.507 170.98 227.919 170.404C228.309 169.908 228.779 169.433 229.329 168.98C229.829 168.556 230.274 168.097 230.664 167.601C231.033 167.185 231.052 166.632 230.722 165.943L231.759 166.157C231.341 165.316 231.174 164.499 231.257 163.706C231.37 162.964 231.574 162.204 231.869 161.425C232.163 160.646 232.523 159.863 232.948 159.076C233.323 158.319 233.592 157.555 233.756 156.783C233.098 155.878 232.806 154.963 232.882 154.04C232.958 153.117 233.114 152.215 233.35 151.334C233.586 150.454 233.742 149.552 233.818 148.629C233.843 147.735 233.511 146.81 232.824 145.853C233.214 145.357 233.379 144.822 233.318 144.249C233.258 143.675 233.212 143.126 233.18 142.603C233.149 142.08 233.227 141.629 233.414 141.25C233.652 140.842 234.214 140.585 235.1 140.48C234.068 140.332 233.514 140.076 233.44 139.713C233.416 139.321 233.509 138.895 233.718 138.436C233.956 138.028 234.139 137.584 234.268 137.104C234.396 136.624 234.133 136.167 233.477 135.734C234.402 134.523 234.763 133.333 234.562 132.164C234.36 130.995 234.014 129.808 233.521 128.604C233.109 127.421 232.773 126.194 232.513 124.924C232.282 123.704 232.6 122.438 233.466 121.126C232.837 120.271 232.521 119.371 232.517 118.426C232.592 117.503 232.658 116.62 232.712 115.776C232.817 114.904 232.755 114.094 232.527 113.346C232.349 112.569 231.717 111.885 230.632 111.294L230.741 113.768ZM301.419 53.3748C301.822 53.9545 301.984 54.4698 301.906 54.9207C301.828 55.3717 301.605 55.8051 301.236 56.221C300.918 56.6076 300.534 56.9981 300.085 57.3926C299.607 57.7363 299.249 58.1122 299.011 58.5202C297.452 59.2176 295.914 59.8349 294.397 60.3722C292.851 60.8588 291.334 61.1599 289.844 61.2755C288.326 61.3404 286.806 61.1691 285.285 60.7617C283.815 60.3249 282.325 59.5611 280.816 58.4704C280.861 57.0239 280.415 55.725 279.48 54.5736C278.515 53.3714 277.58 52.22 276.674 51.1194C275.818 49.9894 275.199 48.8584 274.816 47.7264C274.484 46.565 274.903 45.2404 276.074 43.7526C275.65 43.253 275.299 42.6441 275.019 41.9258C274.791 41.1782 274.291 40.7226 273.52 40.5589C272.095 42.1932 271.046 43.9494 270.371 45.8275C269.696 47.7055 269.13 49.6558 268.674 51.6783C268.269 53.6714 267.853 55.7046 267.426 57.7778C267.021 59.771 266.4 61.6852 265.566 63.5204C264.935 63.952 264.21 64.3367 263.39 64.6747C262.592 64.9326 262.1 65.4872 261.915 66.3383C262.171 66.6642 262.474 66.8954 262.823 67.032C263.173 67.1685 263.471 67.3343 263.719 67.5295C264.018 67.6953 264.255 67.9304 264.431 68.2349C264.577 68.4886 264.576 68.8956 264.426 69.4559C264.211 70.2563 263.902 71.0099 263.498 71.7167C263.116 72.3434 262.763 73.0209 262.439 73.7491C262.136 74.3972 261.954 75.0776 261.892 75.7901C261.83 76.5026 262.048 77.2902 262.546 78.1528C262.153 78.1764 261.859 78.3122 261.664 78.5601C261.44 78.7574 261.285 79.0161 261.199 79.3362C261.063 79.6857 260.966 80.0459 260.91 80.4168C260.853 80.7877 260.767 81.1078 260.652 81.3772C260.697 81.6896 260.84 81.8779 261.08 81.9422C261.349 82.0573 261.644 82.1577 261.964 82.2435C262.083 82.9189 262.02 83.3952 261.774 83.6725C261.507 84.0298 261.166 84.2602 260.753 84.3638C260.288 84.4967 259.805 84.5388 259.303 84.4902C258.78 84.5216 258.322 84.5491 257.93 84.5726C257.397 84.0009 256.856 83.2983 256.307 82.465C255.758 81.6316 255.3 80.7797 254.933 79.9092C254.537 78.988 254.271 78.0589 254.136 77.1219C254.001 76.185 254.091 75.287 254.407 74.428C254.522 74.1586 254.605 74.0093 254.656 73.98C254.677 73.8999 254.688 73.8599 254.688 73.8599C254.688 73.8599 254.714 73.8452 254.764 73.816C254.786 73.7359 254.829 73.5758 254.893 73.3357C255.035 72.6446 255.036 72.0014 254.895 71.4061C254.725 70.76 254.53 70.1286 254.309 69.5118C254.088 68.8951 253.933 68.2744 253.843 67.6498C253.673 67.0037 253.699 66.3458 253.921 65.6762C253.25 64.9815 252.839 64.2711 252.691 63.545C252.564 62.7388 252.517 61.9541 252.55 61.1909C252.604 60.3476 252.648 59.5443 252.681 58.781C252.735 57.9377 252.608 57.1316 252.299 56.3626C252.203 56.0796 252.072 55.8512 251.904 55.6775C251.757 55.4238 251.611 55.1701 251.464 54.9164C250.894 54.1631 250.619 53.5102 250.638 52.9578C250.679 52.3253 250.829 51.765 251.088 51.2769C251.369 50.7088 251.65 50.1406 251.931 49.5725C252.263 48.9751 252.43 48.2694 252.434 47.4554C254.316 47.3162 255.735 47.7822 256.692 48.8536C257.67 49.8449 258.533 51.1057 259.281 52.6358C258.741 53.6921 258.535 54.8595 258.665 56.138C258.765 57.3658 259.002 58.4803 259.377 59.4816C259.655 59.7275 259.884 59.8318 260.065 59.7947C260.268 59.6775 260.457 59.5349 260.63 59.367C260.826 59.119 260.995 58.8857 261.14 58.667C261.284 58.4484 261.458 58.2804 261.661 58.1633C262.755 55.84 263.736 53.3791 264.604 50.7807C265.523 48.1529 265.903 45.5312 265.746 42.9155C266.808 41.3555 267.734 39.7379 268.526 38.0628C269.289 36.337 270.325 34.7916 271.635 33.4267L272.374 30.6653C272.863 30.9248 273.226 30.8505 273.464 30.4424C273.672 29.9836 273.866 29.4995 274.046 28.9899C274.225 28.4804 274.453 28.1124 274.728 27.8858C275.054 27.63 275.589 27.7948 276.332 28.3802C277.602 29.4065 278.476 30.6273 278.954 32.0423C279.404 33.4067 279.701 34.8589 279.846 36.399C280.012 37.8591 280.168 39.3592 280.313 40.8993C280.458 42.4394 280.846 43.873 281.477 45.2002C281.652 45.5047 281.843 45.8345 282.048 46.1897C282.224 46.4942 282.389 46.8387 282.543 47.2232C283.057 48.3474 283.578 49.6024 284.108 50.9882C284.659 52.2939 285.379 53.3663 286.27 54.2054C287.051 54.9723 288.052 55.4766 289.275 55.7183C290.497 55.9599 291.617 56.2602 292.636 56.619C292.962 56.3632 293.332 56.1835 293.746 56.0799C294.16 55.9763 294.548 55.8874 294.911 55.8131C295.325 55.7095 295.684 55.5698 295.988 55.394C296.264 55.1675 296.466 54.8141 296.594 54.3339C296.862 53.9766 297.206 53.8115 297.628 53.8387C298.071 53.7858 298.518 53.7984 298.969 53.8763C299.42 53.9543 299.856 54.0068 300.278 54.034C300.721 53.9812 301.101 53.7615 301.419 53.3748Z" fill="black"/>
<path d="M74.0576 229.687C82.2314 229.687 88.5742 231.84 93.0859 236.146C97.5977 240.453 100.103 245.346 100.601 250.824H92.0752C91.1084 246.664 89.1748 243.368 86.2744 240.937C83.4033 238.505 79.3604 237.289 74.1455 237.289C67.7881 237.289 62.6465 239.53 58.7207 244.013C54.8242 248.466 52.876 255.307 52.876 264.535C52.876 272.094 54.6338 278.231 58.1494 282.948C61.6943 287.636 66.9678 289.979 73.9697 289.979C80.415 289.979 85.3223 287.504 88.6914 282.553C90.4785 279.945 91.8115 276.518 92.6904 272.27H101.216C100.454 279.066 97.9346 284.765 93.6572 289.364C88.5303 294.901 81.6162 297.67 72.915 297.67C65.415 297.67 59.1162 295.399 54.0186 290.858C47.3096 284.853 43.9551 275.58 43.9551 263.041C43.9551 253.52 46.4746 245.712 51.5137 239.618C56.9629 232.997 64.4775 229.687 74.0576 229.687ZM139.756 229.687C151.152 229.687 159.59 233.349 165.068 240.673C169.346 246.386 171.484 253.695 171.484 262.602C171.484 272.24 169.038 280.253 164.146 286.64C158.403 294.14 150.215 297.89 139.58 297.89C129.648 297.89 121.841 294.608 116.157 288.046C111.089 281.718 108.555 273.72 108.555 264.052C108.555 255.321 110.723 247.851 115.059 241.64C120.625 233.671 128.857 229.687 139.756 229.687ZM140.635 290.067C148.34 290.067 153.906 287.313 157.334 281.806C160.791 276.269 162.52 269.911 162.52 262.733C162.52 255.146 160.527 249.037 156.543 244.408C152.588 239.779 147.168 237.465 140.283 237.465C133.604 237.465 128.154 239.765 123.936 244.364C119.717 248.935 117.607 255.688 117.607 264.623C117.607 271.771 119.409 277.807 123.013 282.729C126.646 287.621 132.52 290.067 140.635 290.067ZM206.729 288.529C209.688 288.529 212.119 288.222 214.023 287.606C217.422 286.464 220.205 284.267 222.373 281.015C224.102 278.407 225.347 275.067 226.108 270.995C226.548 268.563 226.768 266.308 226.768 264.228C226.768 256.229 225.171 250.019 221.978 245.595C218.813 241.171 213.701 238.959 206.641 238.959H191.128V288.529H206.729ZM182.339 231.444H208.486C217.363 231.444 224.248 234.594 229.141 240.893C233.506 246.576 235.688 253.856 235.688 262.733C235.688 269.589 234.399 275.785 231.821 281.322C227.28 291.107 219.473 296 208.398 296H182.339V231.444ZM247.817 231.444H294.883V239.354H256.343V258.954H291.982V266.425H256.343V288.31H295.542V296H247.817V231.444Z" fill="black"/>
</g>
<defs>
<clipPath id="clip0">
<rect width="324" height="324" fill="white"/>
</clipPath>
</defs>
</svg>
