<svg width="324" height="324" viewBox="0 0 324 324" fill="none" xmlns="http://www.w3.org/2000/svg">
<g clip-path="url(#clip0)">
<path d="M25.8599 121.239C34.2054 140.254 40.5831 153.581 44.9931 161.219C49.3731 168.805 54.4546 175.987 60.2375 182.763C59.7983 184.402 59.189 185.447 58.4095 185.897C57.6301 186.347 56.9206 186.618 56.281 186.71C52.9698 183.495 49.9053 179.687 47.0874 175.287C46.9804 177.981 46.855 179.924 46.7115 181.115C46.6199 182.277 46.3117 184.083 45.7868 186.534C44.9367 191.181 42.693 194.555 39.0557 196.655C36.3018 198.245 33.5663 198.127 30.8492 196.301C28.1541 194.393 25.6515 191.438 23.3415 187.437C21.0015 183.384 19.2232 179.284 18.0065 175.137C16.8118 170.908 16.5667 166.823 17.271 162.883C17.9454 158.891 19.9193 155.95 23.1929 154.06C25.1674 152.92 27.2261 152.286 29.3689 152.157C31.5116 152.028 33.2998 152.486 34.7333 153.529C34.0272 152.066 32.8862 149.849 31.3101 146.879C29.734 143.91 28.3529 141.277 27.1669 138.983C26.0027 136.607 24.9016 134.159 23.8633 131.641C21.5549 126.323 21.388 123.094 23.3625 121.954C24.038 121.564 24.8705 121.326 25.8599 121.239ZM34.5606 157.37C33.2771 156.586 31.9397 156.25 30.5485 156.36C29.1274 156.419 27.5074 156.973 25.6888 158.023C23.9221 159.043 22.8443 161.016 22.4555 163.943C21.6997 169.714 23.5119 176.392 27.8919 183.979C29.3019 186.421 31.1016 188.638 33.291 190.63C35.4504 192.571 37.2836 193.106 38.7905 192.236C40.9729 190.976 42.2783 188.317 42.7067 184.259C43.1352 180.201 42.856 175.997 41.8692 171.648C40.8523 167.247 39.4889 163.565 37.7789 160.604C36.9689 159.201 35.8961 158.123 34.5606 157.37ZM72.0728 156.704C72.5689 157.804 72.9219 158.535 73.1319 158.899C74.9319 162.016 77.2622 163.893 80.1228 164.527C83.0354 165.132 85.7907 164.684 88.3888 163.184C90.9869 161.684 92.8813 160.106 94.0721 158.448C95.3149 156.761 96.06 155.291 96.3075 154.04C96.8281 150.622 97.8678 148.463 99.4267 147.563C99.9982 147.233 100.764 146.999 101.723 146.86C102.674 149.706 102.049 153.185 99.8495 157.295C97.672 161.324 94.0112 164.823 88.867 167.793C85.2297 169.893 81.426 170.565 77.456 169.808C73.5079 168.97 70.3789 166.55 68.0689 162.549C65.7589 158.548 64.3033 154.227 63.7021 149.586C63.123 144.863 63.5493 140.321 64.9811 135.961C66.4348 131.519 68.6946 128.413 71.7603 126.643C74.878 124.843 77.7472 124.053 80.3678 124.272C83.0104 124.409 85.0366 125.698 86.4466 128.141C89.0566 132.661 89.1901 137.572 86.8471 142.874C84.5261 148.094 81.1053 152.009 76.5846 154.619C75.3895 155.309 73.8855 156.004 72.0728 156.704ZM76.5114 150.712C78.9536 149.302 80.686 147.263 81.7085 144.594C82.7311 141.925 83.1371 139.508 82.9265 137.344C82.7679 135.149 82.2836 133.35 81.4736 131.947C80.6636 130.544 79.413 129.638 77.7218 129.229C76.0006 128.768 74.4126 128.957 72.9577 129.797C70.3596 131.297 68.9784 134.485 68.814 139.36C68.7016 144.205 69.2878 148.821 70.5725 153.206C73.1288 152.353 75.1084 151.522 76.5114 150.712ZM123.43 106.58C122.273 105.655 120.849 105.23 119.16 105.304C117.471 105.379 115.665 105.971 113.743 107.081C111.82 108.191 110.332 109.813 109.277 111.946C108.274 114.049 108.328 116.062 109.438 117.984C110.548 119.907 112.212 120.99 114.431 121.233C116.672 121.394 119.074 121.115 121.639 120.397C124.255 119.649 126.901 118.952 129.578 118.308C132.224 117.611 134.762 117.566 137.19 118.173C139.641 118.698 141.557 120.156 142.937 122.546C144.947 126.027 145.022 129.517 143.162 133.016C141.354 136.485 138.424 139.389 134.371 141.729C131.98 143.109 128.462 144.275 123.815 145.226C119.219 146.147 116.397 145.698 115.347 143.879C114.567 142.528 115.32 141.193 117.606 139.873C118.282 139.483 119.405 139.388 120.976 139.59C125.712 140.112 129.82 139.368 133.302 137.358C135.172 136.278 136.603 135.036 137.594 133.633C139.398 130.997 139.535 128.355 138.005 125.705C137.075 124.094 135.52 123.26 133.339 123.203C131.21 123.115 128.838 123.446 126.221 124.194C123.657 124.913 121.037 125.594 118.36 126.239C115.684 126.883 113.091 126.891 110.58 126.262C108.091 125.552 106.142 123.975 104.732 121.533C102.902 118.363 102.845 114.966 104.563 111.342C106.281 107.717 109.245 104.69 113.454 102.26C116.311 100.61 119.319 99.8782 122.475 100.065C125.653 100.17 128.052 101.625 129.672 104.431C130.752 106.302 130.227 107.852 128.097 109.082C127.213 109.592 126.526 109.781 126.034 109.65C125.594 109.488 125.123 109.032 124.621 108.283C124.141 107.451 123.744 106.884 123.43 106.58ZM136.023 64.3919C136.661 65.617 137.4 66.9571 138.24 68.412C139.08 69.8669 140.028 71.3288 141.083 72.7976C140.836 74.049 140.089 75.0347 138.842 75.7547C137.283 76.6547 135.783 75.8576 134.343 73.3635C134.283 73.2596 134.058 72.8699 133.668 72.1944C133.278 71.5189 132.933 70.9213 132.633 70.4017C132.355 69.8001 132.084 69.0906 131.82 68.2731C131.464 66.816 131.909 65.7275 133.156 65.0075C134.403 64.2875 135.359 64.0823 136.023 64.3919ZM153.084 105.464C147.204 95.2792 144.334 89.1075 144.473 86.9487C144.507 86.1671 144.783 85.6263 145.303 85.3263C145.823 85.0263 146.845 84.8171 148.37 84.6987C150.66 89.2654 153.305 94.1469 156.305 99.343C156.305 99.343 159.672 105.055 166.406 116.478C167.336 118.089 167.633 119.442 167.295 120.538C166.98 121.551 166.51 122.238 165.887 122.598C165.315 122.928 164.627 123.117 163.824 123.165C159.664 116.56 156.084 110.66 153.084 105.464ZM178.146 64.5975C182.875 61.8675 187.258 61.9001 191.297 64.6953C193.454 66.1518 195.37 67.6093 197.043 69.068C198.717 70.5266 200.573 72.7808 202.61 75.8304C205.712 80.4829 209.048 85.9008 212.618 92.0842C216.158 98.2157 217.497 103.955 216.635 109.302C215.856 114.672 212.634 118.991 206.97 122.261C201.358 125.501 195.632 126.383 189.79 124.905C190.23 123.266 191.047 122.101 192.242 121.411C193.489 120.691 195.478 120.236 198.208 120.045C201.02 119.876 203.648 119.087 206.09 117.677C208.532 116.267 210.229 114.526 211.179 112.452C212.16 110.431 212.455 108.182 212.065 105.706C211.294 101.37 209.393 96.5787 206.363 91.3306C205.913 90.5512 204.17 87.7123 201.134 82.814C202.192 87.8849 202.231 92.5733 201.253 96.8792C200.245 101.133 198.104 104.205 194.83 106.095C191.557 107.985 188.301 107.925 185.062 105.915C181.845 103.824 179.156 100.907 176.996 97.1658C174.836 93.4246 173.256 89.4873 172.255 85.3539C171.225 81.1685 171.143 77.1278 172.012 73.2317C172.88 69.3356 174.925 66.4575 178.146 64.5975ZM176.725 81.2148C177.369 83.8911 178.12 86.3325 178.979 88.539C179.837 90.7455 180.866 92.8879 182.066 94.9664C183.236 96.9929 184.957 99.0132 187.228 101.027C189.551 103.012 191.544 103.524 193.207 102.564C196.481 100.674 197.981 96.5514 197.707 90.197C197.403 83.7907 195.811 78.0934 192.931 73.1051C191.941 71.3903 190.026 69.9328 187.185 68.7323C184.366 67.4499 181.761 67.4988 179.371 68.8788C177.708 69.8388 176.677 71.4732 176.278 73.782C175.931 76.0609 176.08 78.5384 176.725 81.2148ZM261.882 65.3044C261.517 66.8316 260.737 67.9403 259.541 68.6303C257.307 69.9203 254.954 69.6852 252.483 67.9249C250.012 66.1647 247.682 63.6299 245.495 60.3204C243.359 56.9809 241.275 53.6115 239.243 50.212C237.211 46.8125 235.245 44.0677 233.345 41.9775C231.498 39.8572 229.899 39.1871 228.548 39.9671C226.729 41.0171 226.115 43.5539 226.706 47.5775C227.349 51.5711 228.566 55.7184 230.356 60.0194C235.351 72.0311 237.563 79.1025 236.992 81.2335C236.327 82.2412 235.656 82.94 234.981 83.33C234.305 83.72 233.689 83.972 233.131 84.0862C229.28 79.9357 223.823 72.1048 216.762 60.5935C213.298 54.8338 211.019 51.1266 209.925 49.4718C210.596 48.1144 211.321 47.2106 212.101 46.7606C212.88 46.3106 213.549 46.0286 214.106 45.9145C215.656 47.9988 218.426 52.4964 222.416 59.4073C226.458 66.2882 228.805 70.2332 229.457 71.2425C229.087 70.0013 228.379 68.0546 227.332 65.4024C226.338 62.7202 225.547 60.5097 224.959 58.7708C224.34 56.98 223.754 54.8244 223.199 52.304C222.645 49.7836 222.423 47.6598 222.535 45.9327C222.616 44.1537 223.129 42.4025 224.074 40.6792C224.989 38.9039 226.356 37.4912 228.175 36.4412C230.617 35.0312 233.028 35.1284 235.41 36.7327C237.813 38.2551 240.011 40.6231 242.005 43.8367C243.999 47.0502 245.971 50.3458 247.921 53.7233C249.923 57.0708 252.124 59.9225 254.523 62.2784C256.975 64.6043 259.428 65.613 261.882 65.3044Z" fill="black"/>
<path fill-rule="evenodd" clip-rule="evenodd" d="M421 444H-342L421 7V444ZM219 149H203V171H181V187H203V209H219V187H241V171H219V149ZM74.0576 229.687C82.2314 229.687 88.5742 231.84 93.0859 236.146C97.5977 240.453 100.103 245.346 100.601 250.824H92.0752C91.1084 246.664 89.1748 243.368 86.2744 240.937C83.4033 238.505 79.3604 237.289 74.1455 237.289C67.7881 237.289 62.6465 239.53 58.7207 244.013C54.8242 248.466 52.876 255.307 52.876 264.535C52.876 272.094 54.6338 278.231 58.1494 282.948C61.6943 287.636 66.9678 289.979 73.9697 289.979C80.415 289.979 85.3223 287.504 88.6914 282.553C90.4785 279.945 91.8115 276.518 92.6904 272.27H101.216C100.454 279.066 97.9346 284.765 93.6572 289.364C88.5303 294.901 81.6162 297.67 72.915 297.67C65.415 297.67 59.1162 295.399 54.0186 290.858C47.3096 284.853 43.9551 275.58 43.9551 263.041C43.9551 253.52 46.4746 245.712 51.5137 239.618C56.9629 232.997 64.4775 229.687 74.0576 229.687ZM142.456 229.687C153.852 229.687 162.29 233.349 167.768 240.673C172.046 246.386 174.184 253.695 174.184 262.602C174.184 272.24 171.738 280.253 166.846 286.64C161.103 294.14 152.915 297.89 142.28 297.89C132.348 297.89 124.541 294.608 118.857 288.046C113.789 281.718 111.255 273.72 111.255 264.052C111.255 255.321 113.423 247.851 117.759 241.64C123.325 233.671 131.557 229.687 142.456 229.687ZM143.335 290.067C151.04 290.067 156.606 287.313 160.034 281.806C163.491 276.269 165.22 269.911 165.22 262.733C165.22 255.146 163.227 249.037 159.243 244.408C155.288 239.779 149.868 237.465 142.983 237.465C136.304 237.465 130.854 239.765 126.636 244.364C122.417 248.935 120.307 255.688 120.307 264.623C120.307 271.771 122.109 277.807 125.713 282.729C129.346 287.621 135.22 290.067 143.335 290.067ZM212.129 288.529C215.088 288.529 217.519 288.222 219.423 287.606C222.822 286.464 225.605 284.267 227.773 281.015C229.502 278.407 230.747 275.067 231.508 270.995C231.948 268.563 232.168 266.308 232.168 264.228C232.168 256.229 230.571 250.019 227.378 245.595C224.214 241.171 219.101 238.959 212.041 238.959H196.528V288.529H212.129ZM187.739 231.444H213.886C222.763 231.444 229.648 234.594 234.541 240.893C238.906 246.576 241.089 253.856 241.089 262.733C241.089 269.589 239.799 275.785 237.221 281.322C232.68 291.107 224.873 296 213.798 296H187.739V231.444ZM255.917 231.444H302.983V239.354H264.443V258.954H300.082V266.425H264.443V288.31H303.642V296H255.917V231.444Z" fill="#3C8FF7"/>
</g>
<defs>
<clipPath id="clip0">
<rect width="324" height="324" fill="white"/>
</clipPath>
</defs>
</svg>
