<svg width="75" height="59" viewBox="0 0 75 59" fill="none" xmlns="http://www.w3.org/2000/svg">
<path d="M12.8672 31.7891L7.28125 38.5469V58H0.132812V1.125H7.28125V28.5859L11.9688 22.375L27.2812 1.125H35.875L17.3984 26.1641L37.3203 58H28.7656L12.8672 31.7891ZM74.1406 39.9531C73.8281 46.0469 72.1094 50.7083 68.9844 53.9375C65.8854 57.1667 61.4974 58.7812 55.8203 58.7812C50.1172 58.7812 45.5859 56.6198 42.2266 52.2969C38.8672 47.9479 37.1875 42.0625 37.1875 34.6406V24.3281C37.1875 16.9323 38.9062 11.0859 42.3438 6.78906C45.8073 2.49219 50.5208 0.34375 56.4844 0.34375C61.9792 0.34375 66.224 1.9974 69.2188 5.30469C72.2396 8.58594 73.8802 13.2865 74.1406 19.4062H66.9141C66.6016 14.7708 65.625 11.4635 63.9844 9.48438C62.3438 7.50521 59.8438 6.51562 56.4844 6.51562C52.6042 6.51562 49.6224 8.03906 47.5391 11.0859C45.4557 14.1068 44.4141 18.5469 44.4141 24.4062V34.8359C44.4141 40.5911 45.3776 45.0052 47.3047 48.0781C49.2578 51.151 52.0964 52.6875 55.8203 52.6875C59.5443 52.6875 62.2266 51.763 63.8672 49.9141C65.5078 48.0651 66.5234 44.7448 66.9141 39.9531H74.1406Z" fill="white"/>
</svg>
